<svg width="328" height="170" viewBox="0 0 328 170" fill="none" xmlns="http://www.w3.org/2000/svg">
<path d="M136.272 19.0547C136.681 19.0195 137.092 19.1442 137.412 19.4082L167.201 43.9736C167.206 43.9778 167.213 43.9811 167.218 43.9853C167.232 43.9968 167.244 44.0105 167.258 44.0224C167.279 44.0413 167.301 44.0602 167.321 44.0801C167.336 44.0948 167.352 44.1096 167.366 44.125C167.398 44.1586 167.429 44.1935 167.457 44.2295C167.465 44.2392 167.472 44.2498 167.479 44.2597C167.502 44.2891 167.522 44.3199 167.542 44.3506C167.553 44.3675 167.564 44.385 167.574 44.4023C167.588 44.4253 167.601 44.4491 167.613 44.4726C167.631 44.5055 167.647 44.5392 167.662 44.5732C167.673 44.5972 167.682 44.6221 167.691 44.6465C167.705 44.6832 167.718 44.721 167.729 44.7588C167.736 44.7813 167.743 44.8043 167.749 44.8271C167.755 44.8508 167.76 44.8754 167.765 44.8994C167.769 44.9218 167.773 44.9451 167.776 44.9677C167.784 45.0153 167.788 45.0639 167.791 45.1123C167.792 45.1257 167.793 45.1398 167.794 45.1533C167.795 45.1703 167.797 45.188 167.797 45.2051V95.3115C167.797 96.0628 167.265 96.7093 166.528 96.8574L107.394 108.726C107.18 108.817 106.95 108.859 106.719 108.852C106.342 108.885 105.966 108.78 105.658 108.558L99.4844 106.375C98.8563 106.153 98.4341 105.56 98.4316 104.894L98.4033 96.9883L90.5811 98.6328C90.5657 98.636 90.5496 98.6369 90.5342 98.6396C90.5141 98.6432 90.4938 98.6466 90.4736 98.6494C90.4268 98.6559 90.3799 98.6598 90.333 98.6621C90.3256 98.6624 90.318 98.6628 90.3105 98.6631C90.2583 98.6648 90.2062 98.6645 90.1543 98.6611C90.1436 98.6604 90.1328 98.6591 90.1221 98.6582C90.0683 98.6535 90.0148 98.6468 89.9619 98.6367C89.9574 98.6358 89.9528 98.6347 89.9482 98.6338C89.8944 98.623 89.8415 98.6091 89.7891 98.5928C89.7835 98.591 89.777 98.5906 89.7715 98.5888L89.7285 98.5742C89.7251 98.573 89.7212 98.5725 89.7178 98.5713L79.8662 95.3779C79.8493 95.3724 79.833 95.3654 79.8164 95.3594L69.9561 92.1719C69.3052 91.9614 68.8625 91.3548 68.8623 90.6709V80.0898C68.8623 80.0785 68.864 80.0669 68.8643 80.0556C68.8644 80.0506 68.8641 80.0451 68.8643 80.04C68.8657 79.9962 68.869 79.9521 68.874 79.9092C68.876 79.8923 68.8784 79.8751 68.8809 79.8584C68.8861 79.8234 68.8919 79.7882 68.8994 79.7539C68.9046 79.7304 68.9108 79.7068 68.917 79.6836C68.9261 79.6497 68.937 79.616 68.9482 79.583C68.9563 79.5595 68.9645 79.5357 68.9736 79.5127C68.9881 79.4761 69.0034 79.4395 69.0205 79.4043C69.0323 79.3799 69.0455 79.3558 69.0586 79.332C69.0705 79.3105 69.0839 79.2894 69.0967 79.2685C69.1124 79.2429 69.1284 79.2171 69.1455 79.1924C69.17 79.1571 69.1954 79.1219 69.2227 79.0888C69.2374 79.071 69.253 79.0534 69.2686 79.0361C69.2879 79.0147 69.3086 78.994 69.3291 78.9736C69.355 78.9479 69.3824 78.9234 69.4102 78.8994C69.4359 78.8771 69.462 78.8546 69.4893 78.834C69.4971 78.828 69.5047 78.8212 69.5127 78.8154C69.5252 78.8064 69.5391 78.7987 69.5518 78.79C69.575 78.7742 69.5989 78.7587 69.623 78.7441C69.7143 78.6887 69.8101 78.643 69.9092 78.6074C69.9204 78.6034 69.932 78.5994 69.9434 78.5957C69.9836 78.5823 70.0243 78.5697 70.0654 78.5595L89.6816 73.6035L89.8984 73.5644C90.1183 73.5408 90.3418 73.5651 90.5537 73.6338L98.3301 76.1543L98.2969 66.039L56.3662 52.5664L56.4141 88.8867C56.4145 89.3986 56.1657 89.8798 55.748 90.1758C55.3301 90.4715 54.7943 90.5464 54.3115 90.376L48.1025 88.1797C47.4732 87.957 47.0525 87.3619 47.0518 86.6943L47 39.1289C47.0001 38.3954 47.5071 37.7587 48.2217 37.5927L76.418 31.0615L76.4521 31.0556C76.4562 31.0548 76.4608 31.0535 76.4648 31.0527L136.098 19.0791L136.272 19.0547ZM59.0215 58.6543C59.2875 57.8253 60.1746 57.3682 61.0039 57.6338L95.0537 68.5351C95.8827 68.8009 96.3401 69.6894 96.0752 70.5185C95.8094 71.3478 94.9212 71.8045 94.0918 71.539L60.042 60.6367C59.2125 60.371 58.756 59.4838 59.0215 58.6543Z" fill="white"/>
<path d="M76.7741 32.5947L48.5789 39.1246L48.6293 86.6887L54.8375 88.8843L54.787 50.3989L99.8716 64.8846L100.01 104.884L106.774 107.275L106.578 57.1749L76.7741 32.5947Z" stroke="#231815" stroke-width="1.64866" stroke-linecap="round" stroke-linejoin="round"/>
<path d="M60.522 59.1309L94.572 70.0329" stroke="#231815" stroke-width="1.64866" stroke-linecap="round" stroke-linejoin="round"/>
<path d="M166.217 45.2012L106.577 57.1759L76.7734 32.5957L136.407 20.6211L166.217 45.2012Z" fill="#467AA2" stroke="#231815" stroke-width="1.64866" stroke-linecap="round" stroke-linejoin="round"/>
<path d="M106.579 107.277L166.219 95.3088V45.2021L106.579 57.1768V107.277Z" stroke="#231815" stroke-width="1.64866" stroke-linecap="round" stroke-linejoin="round"/>
<path d="M90.2566 97.0873L100.01 95.0369V84.4629L90.2566 86.5133V97.0873Z" fill="#D7AE6E" stroke="#231815" stroke-width="1.64866" stroke-linecap="round" stroke-linejoin="round"/>
<path d="M90.2568 97.0881L80.3516 93.8767V83.3027L90.2568 86.5141V97.0881Z" fill="#467AA2" stroke="#231815" stroke-width="1.64866" stroke-linecap="round" stroke-linejoin="round"/>
<path d="M90.2568 86.512L80.3516 83.3007L99.9728 78.3418L100.011 84.4616L90.2568 86.512Z" fill="#467AA2" stroke="#231815" stroke-width="1.64866" stroke-linecap="round" stroke-linejoin="round"/>
<path d="M80.3522 93.8752L70.4407 90.6702V80.0898L80.3522 83.3012V93.8752Z" fill="#467AA2" stroke="#231815" stroke-width="1.64866" stroke-linecap="round" stroke-linejoin="round"/>
<path d="M80.3522 83.2991L70.4407 80.0878L90.0682 75.1289L99.9734 78.3402L80.3522 83.2991Z" fill="#467AA2" stroke="#231815" stroke-width="1.64866" stroke-linecap="round" stroke-linejoin="round"/>
<g clip-path="url(#clip0_530_2976)">
<path d="M181.189 142.814H171.896C170.399 142.814 169.185 141.615 169.185 140.139V53.8604C169.185 52.3838 170.399 51.1855 171.896 51.1855H181.189C182.685 51.1855 183.899 52.3838 183.899 53.8604V140.144C183.899 141.62 182.685 142.818 181.189 142.818V142.814ZM174.606 137.464H178.478V56.5352H174.606V137.469V137.464Z" fill="#231815"/>
<path d="M181.188 53.8604H171.895V140.144H181.188V53.8604Z" fill="#727171"/>
<path d="M222.474 133.062C217.602 133.062 213.161 131.481 212.831 131.363C211.718 130.958 211 129.887 211.063 128.717L212.052 109.531C212.052 109.503 212.052 109.474 212.057 109.451C212.368 105.714 213.405 102.874 215.145 101.006C216.613 99.4307 218.592 98.5627 220.719 98.5627H229.381L235.285 79.4756C235.285 79.4756 235.295 79.452 235.3 79.4379C236.222 76.6027 239.793 74.3053 244.593 75.6262C248.546 76.7159 250.707 79.971 249.847 83.5374C248.9 87.4671 242.666 107.974 241.868 110.545C241.858 110.578 241.849 110.606 241.834 110.639C241.677 111.088 237.919 121.697 233.139 128.434C230.581 132.043 226.389 133.062 222.478 133.062H222.474ZM216.584 126.896C219.801 127.717 226.245 128.825 228.693 125.372C232.895 119.447 236.428 109.677 236.691 108.936C237.518 106.262 243.665 86.0188 244.559 82.3014C244.727 81.5985 244.244 81.089 243.125 80.7777C241.768 80.405 240.563 80.7871 240.453 81.0654L233.975 102.016C233.626 103.139 232.575 103.908 231.384 103.908H220.719C218.243 103.908 217.617 108.026 217.464 109.842L216.584 126.891V126.896Z" fill="#231815"/>
<path d="M237.875 80.2538L231.388 101.233H220.723C218.543 101.233 215.345 102.634 214.762 109.663L213.772 128.849C213.772 128.849 226.302 133.406 230.92 126.896C235.537 120.386 239.271 109.757 239.271 109.757C240.045 107.257 246.27 86.7734 247.202 82.9098C248.469 77.6639 239.185 76.2298 237.875 80.2491V80.2538Z" fill="#727171"/>
<path d="M269.949 144.88H199.882C199.131 144.88 198.409 144.573 197.898 144.026C197.386 143.483 197.123 142.752 197.176 142.011L198.103 129.17C198.204 127.769 199.385 126.689 200.809 126.689H220.782C232.064 120.377 235.96 112.853 241.085 95.2987C241.477 93.9589 242.839 93.1381 244.225 93.4164L266.531 97.8509C273.783 99.3322 277.77 105.555 277.77 115.376C277.77 121.608 276.374 137.379 272.22 143.663C271.718 144.422 270.867 144.875 269.949 144.875V144.88ZM202.793 139.53H268.353C270.848 134.27 272.354 122.405 272.354 115.376C272.354 110.414 271.159 104.257 265.451 103.092L245.597 99.1482C240.473 116.131 235.821 124.637 222.799 131.708C222.398 131.925 221.948 132.039 221.494 132.039H203.338L202.798 139.53H202.793Z" fill="#231815"/>
<path d="M200.809 129.364H221.49C234.239 122.438 238.455 113.97 243.69 96.0391L265.996 100.474C272.736 101.851 275.06 108.272 275.06 115.376C275.06 122.481 273.434 136.93 269.949 142.205H199.882L200.809 129.364Z" fill="#467AA2"/>
<path d="M185.53 124.241C185.377 124.241 185.214 124.259 185.071 124.203C183.484 123.556 184.038 122.575 184.287 121.118L194.675 60.8136C194.68 60.7759 194.689 60.7429 194.694 60.7051C196.879 50.5625 204.102 50.5625 207.573 50.5625H254.498C255.989 50.5625 257.199 51.7513 257.208 53.2232L257.538 108.451C257.548 109.928 257.299 111.131 255.798 111.14H255.784C254.292 111.14 254.039 109.951 254.029 108.479L253.714 54.0251H207.568C203.657 54.0251 199.283 56.3084 198.093 61.7666L187.715 122.014C187.49 123.321 186.821 124.241 185.525 124.241H185.53Z" fill="#231815"/>
<path d="M261.31 150.952C252.098 150.952 244.602 143.555 244.602 134.464C244.602 125.374 252.098 117.977 261.31 117.977C270.522 117.977 278.018 125.374 278.018 134.464C278.018 143.555 270.522 150.952 261.31 150.952ZM261.31 123.326C255.086 123.326 250.023 128.322 250.023 134.464C250.023 140.606 255.086 145.602 261.31 145.602C267.534 145.602 272.596 140.606 272.596 134.464C272.596 128.322 267.534 123.326 261.31 123.326Z" fill="#231815"/>
<path d="M271.209 144.229C276.675 138.835 276.675 130.089 271.209 124.695C265.742 119.3 256.88 119.3 251.414 124.695C245.947 130.089 245.947 138.835 251.414 144.229C256.88 149.623 265.742 149.623 271.209 144.229Z" fill="#595757"/>
<path d="M265.049 138.15C267.114 136.113 267.114 132.809 265.049 130.772C262.985 128.734 259.637 128.734 257.572 130.772C255.507 132.809 255.507 136.113 257.572 138.15C259.637 140.188 262.985 140.188 265.049 138.15Z" fill="white"/>
<path d="M261.31 141.02C257.649 141.02 254.666 138.081 254.666 134.463C254.666 130.844 257.644 127.905 261.31 127.905C264.977 127.905 267.955 130.844 267.955 134.463C267.955 138.081 264.977 141.02 261.31 141.02ZM261.31 130.58C259.14 130.58 257.376 132.321 257.376 134.463C257.376 136.604 259.14 138.345 261.31 138.345C263.481 138.345 265.245 136.604 265.245 134.463C265.245 132.321 263.481 130.58 261.31 130.58Z" fill="white"/>
<path d="M171.896 111.607H136.315C131.496 111.607 128.891 107.786 128.891 104.191C128.891 102.314 129.57 100.564 130.808 99.2615C131.779 98.2378 133.547 97.0159 136.449 97.0159H160.27V68.626C160.27 67.1494 161.484 65.9512 162.981 65.9512H171.896C173.393 65.9512 174.607 67.1494 174.607 68.626V108.932C174.607 110.409 173.393 111.607 171.896 111.607ZM136.454 102.37C135.684 102.37 135.115 102.554 134.766 102.922C134.475 103.229 134.312 103.682 134.312 104.196C134.312 104.408 134.37 106.262 136.315 106.262H169.186V71.3008H165.691V99.6908C165.691 101.167 164.477 102.366 162.981 102.366H136.454V102.37Z" fill="#231815"/>
<path d="M162.98 68.6309V99.6956H136.453C129.722 99.6956 130.305 108.937 136.319 108.937H171.9V68.6309H162.985H162.98Z" fill="#467AA2"/>
<path d="M278.291 119.919H235.61C234.693 119.919 233.837 119.462 233.34 118.702C232.838 117.943 232.761 116.985 233.134 116.16L237.829 105.748C238.264 104.781 239.234 104.158 240.305 104.158H278.291C279.787 104.158 281.001 105.356 281.001 106.833V117.245C281.001 118.721 279.787 119.919 278.291 119.919ZM239.784 114.57H275.58V109.508H242.064L239.784 114.57Z" fill="#231815"/>
<path d="M240.304 106.834H278.29V117.246H235.61L240.304 106.834Z" fill="#727171"/>
<path d="M193.738 117.325C193.212 117.325 192.682 117.174 192.213 116.863C190.975 116.033 190.655 114.367 191.501 113.145L200.765 99.7194C201.607 98.4976 203.294 98.1815 204.532 99.0165C205.77 99.8468 206.091 101.512 205.245 102.734L195.98 116.16C195.454 116.919 194.603 117.33 193.738 117.33V117.325Z" fill="#231815"/>
<path d="M208.515 105.055C207.994 105.055 207.473 104.909 207.009 104.602L197.744 98.4739C196.501 97.6531 196.167 95.9925 197.003 94.7613C197.835 93.5347 199.518 93.2045 200.766 94.0301L210.03 100.158C211.273 100.979 211.608 102.64 210.771 103.871C210.25 104.64 209.39 105.055 208.52 105.055H208.515Z" fill="#231815"/>
<path d="M190.181 150.951C179.621 150.951 171.035 142.474 171.035 132.053C171.035 121.632 179.626 113.154 190.181 113.154C200.736 113.154 209.332 121.632 209.332 132.053C209.332 142.474 200.741 150.951 190.181 150.951ZM190.181 118.509C182.613 118.509 176.451 124.585 176.451 132.057C176.451 139.53 182.609 145.606 190.181 145.606C197.753 145.606 203.91 139.53 203.91 132.057C203.91 124.585 197.753 118.509 190.181 118.509Z" fill="#231815"/>
<path d="M190.186 148.281C199.265 148.281 206.626 141.017 206.626 132.057C206.626 123.097 199.265 115.834 190.186 115.834C181.106 115.834 173.746 123.097 173.746 132.057C173.746 141.017 181.106 148.281 190.186 148.281Z" fill="#595757"/>
<path d="M192.561 137.717C195.73 136.422 197.234 132.837 195.922 129.711C194.609 126.584 190.977 125.099 187.808 126.394C184.64 127.689 183.135 131.274 184.447 134.401C185.76 137.528 189.392 139.012 192.561 137.717Z" fill="white"/>
<path d="M190.182 139.521C186.009 139.521 182.62 136.171 182.62 132.058C182.62 127.944 186.014 124.595 190.182 124.595C194.351 124.595 197.745 127.944 197.745 132.058C197.745 136.171 194.351 139.521 190.182 139.521ZM190.182 127.265C187.505 127.265 185.33 129.411 185.33 132.053C185.33 134.695 187.505 136.841 190.182 136.841C192.859 136.841 195.035 134.695 195.035 132.053C195.035 129.411 192.859 127.265 190.182 127.265Z" fill="white"/>
<path d="M156.13 95.5622H126.386C124.889 95.5622 123.675 94.3639 123.675 92.8873V63.5303C123.675 62.0537 124.889 60.8555 126.386 60.8555H156.13C157.626 60.8555 158.84 62.0537 158.84 63.5303V92.8826C158.84 94.3592 157.626 95.5574 156.13 95.5574V95.5622ZM129.096 90.2125H153.424V66.2051H129.096V90.2125Z" fill="#231815"/>
<path d="M156.13 63.5303H126.386V92.8826H156.13V63.5303Z" fill="#BAD7EE"/>
</g>
<defs>
<clipPath id="clip0_530_2976">
<rect width="157.325" height="100.389" fill="white" transform="translate(123.675 50.5625)"/>
</clipPath>
</defs>
</svg>
